<svg width="20" height="20" viewBox="0 0 20 20" fill="none" xmlns="http://www.w3.org/2000/svg">
<path fill-rule="evenodd" clip-rule="evenodd" d="M0.482648 10.0002C0.482648 4.75203 4.75205 0.482601 9.99983 0.482601C15.248 0.482601 19.5174 4.75203 19.5174 10.0002C19.5174 15.248 15.248 19.5174 9.99983 19.5174C4.75205 19.5174 0.482648 15.248 0.482648 10.0002ZM0 10.0002C0 15.5141 4.4859 20 9.99983 20C15.5138 20 20 15.5141 20 10.0002C20 4.4862 15.5138 0 9.99983 0C4.4859 0 0 4.4862 0 10.0002ZM18.7007 10C18.7007 14.8053 14.8053 18.7008 9.99994 18.7008C5.19467 18.7008 1.29919 14.8053 1.29919 10C1.29919 5.19467 5.19467 1.29923 9.99994 1.29923C14.8053 1.29923 18.7007 5.19467 18.7007 10ZM2.95159 7.20448C2.77102 7.43779 2.74377 7.77818 2.89186 7.97872C3.03996 8.17898 3.32149 8.16035 3.5182 7.92259C3.71481 7.68522 3.73929 7.32288 3.57524 7.12723C3.4111 6.93114 3.1324 6.97161 2.95159 7.20448ZM11.7689 7.60298C11.5325 7.83791 11.5379 8.23516 11.7853 8.4846C12.0327 8.73419 12.4239 8.73788 12.6549 8.49835C12.8861 8.25868 12.8741 7.87005 12.6322 7.62496C12.3901 7.38012 12.0055 7.36795 11.7689 7.60298ZM5.42643 5.17349C5.61035 5.35349 5.96205 5.32542 6.20158 5.10548C6.33775 4.98057 6.40628 4.82438 6.40533 4.68222L7.39151 4.35351C7.41134 4.38225 7.43528 4.4096 7.4644 4.43465C7.65158 4.59591 7.971 4.60113 8.20737 4.45778L8.75712 4.94129C8.59197 5.14811 8.60586 5.4374 8.81431 5.62822C9.04972 5.84394 9.44471 5.84174 9.68496 5.62271C9.9255 5.40359 9.91946 5.06084 9.68343 4.85819C9.46081 4.66733 9.11414 4.65909 8.87408 4.8308L8.33516 4.35677C8.52703 4.15958 8.52176 3.89371 8.32491 3.74236C8.29329 3.71812 8.25838 3.69834 8.22145 3.68201L8.58062 2.99489C8.73873 3.00121 8.90713 2.96304 9.03209 2.88157C9.25212 2.73831 9.25351 2.53585 9.05609 2.43038C8.85823 2.32506 8.53732 2.3343 8.3182 2.45179C8.09955 2.56952 8.06574 2.7726 8.26278 2.90365C8.30618 2.93258 8.35752 2.95427 8.41313 2.9695L8.06397 3.63751C7.88211 3.61136 7.6786 3.65916 7.52399 3.77818C7.37316 3.89462 7.30558 4.05627 7.33063 4.20494L6.37166 4.5246C6.35106 4.47876 6.32136 4.43704 6.28142 4.40222C6.0906 4.23588 5.75528 4.27103 5.52212 4.47713C5.2893 4.68342 5.24222 4.99345 5.42643 5.17349ZM9.68822 10.5917C9.63424 10.5378 9.57279 10.4962 9.50751 10.4654L9.86256 9.40019C10.0675 9.44205 10.2885 9.38405 10.4464 9.22594C10.6963 8.97554 10.6933 8.57173 10.4425 8.32334C10.1917 8.075 9.78741 8.07365 9.53672 8.32113C9.28608 8.56866 9.28469 8.97372 9.53634 9.22503C9.58864 9.27719 9.64794 9.31795 9.71092 9.34846L9.35544 10.4149C9.17616 10.3802 8.98534 10.4223 8.83562 10.5403L8.22322 9.92796C8.42156 9.67578 8.40604 9.3076 8.17633 9.07703C7.94638 8.84598 7.58596 8.83391 7.33949 9.03402L6.75981 8.4415C6.95522 8.19263 6.94751 7.83604 6.73442 7.6208C6.50533 7.38927 6.13141 7.40493 5.89547 7.6491C5.74297 7.80721 5.68387 8.02365 5.72094 8.2207L4.78443 8.58317C4.76014 8.51861 4.72552 8.45845 4.67934 8.40701C4.4767 8.18085 4.14913 8.20068 3.94663 8.43944C3.74427 8.67858 3.73325 9.04777 3.9234 9.27623C4.11345 9.50441 4.44341 9.50355 4.65837 9.2622C4.78634 9.1187 4.84056 8.92319 4.82131 8.74071L5.77109 8.37305C5.7959 8.42344 5.82794 8.47086 5.86793 8.51339C6.07068 8.72873 6.40475 8.74286 6.6462 8.55444L7.22885 9.15003C7.04263 9.40028 7.05935 9.75539 7.28202 9.98347C7.50536 10.2122 7.85988 10.2322 8.10918 10.0404L8.72326 10.6545C8.531 10.9056 8.55145 11.265 8.78203 11.4933C9.0329 11.7417 9.43719 11.743 9.68788 11.4955C9.93852 11.248 9.93986 10.8429 9.68822 10.5917ZM16.7816 13.0159L16.3319 12.5227C16.4575 12.2982 16.4628 12.0141 16.3327 11.838C16.2969 11.7895 16.2531 11.7541 16.2048 11.7313L16.4738 10.7896C16.6075 10.8298 16.7518 10.7726 16.8503 10.6257C16.9992 10.4028 17.0031 10.0603 16.859 9.84308C16.7148 9.62626 16.4607 9.61754 16.2927 9.84088C16.1246 10.0637 16.1209 10.4335 16.2841 10.6497C16.2993 10.6697 16.3154 10.6871 16.3319 10.7032L16.0466 11.7016C15.9305 11.7082 15.8073 11.7721 15.7064 11.894C15.5097 12.1315 15.4853 12.4938 15.6494 12.6895C15.8027 12.8727 16.056 12.8492 16.2361 12.6555L16.6895 13.1527C16.6403 13.2444 16.609 13.3436 16.5971 13.438L15.6894 13.9046C15.6757 13.8713 15.6578 13.8403 15.6345 13.8129C15.486 13.6381 15.1843 13.6758 14.9661 13.9068C14.7479 14.1376 14.7061 14.4657 14.8667 14.6307C15.0125 14.7806 15.2676 14.7517 15.4677 14.5803L15.7984 14.9505C15.6406 15.1563 15.5988 15.398 15.7072 15.5107C15.8267 15.6354 16.0749 15.5662 16.2624 15.3602C16.4497 15.154 16.5155 14.8815 16.4094 14.7459C16.313 14.6227 16.097 14.6613 15.9075 14.8322L15.5778 14.463C15.6705 14.3402 15.7199 14.1982 15.7201 14.069L16.5998 13.6168C16.61 13.6738 16.63 13.7243 16.6604 13.7642C16.7811 13.923 17.0057 13.859 17.1605 13.6339C17.315 13.4083 17.3563 13.1034 17.2546 12.9391C17.1578 12.7832 16.951 12.814 16.7816 13.0159ZM11.3486 12.3894L12.376 12.0268C12.4033 12.0886 12.4409 12.1461 12.4902 12.1959C12.7193 12.4274 13.0932 12.4118 13.3291 12.1676C13.5648 11.9232 13.5788 11.5393 13.3567 11.3033C13.1503 11.0842 12.8078 11.0731 12.5656 11.2721L11.9917 10.6722C12.1058 10.5223 12.1462 10.3337 12.1119 10.157L13.1216 9.8154C13.1498 9.8757 13.187 9.93231 13.2342 9.98227C13.4657 10.2271 13.8319 10.2226 14.0512 9.98112C14.2705 9.73948 14.2673 9.35301 14.0448 9.10907C13.996 9.05562 13.9401 9.01419 13.8807 8.98344L14.1627 7.98888C14.34 8.03582 14.5245 7.99032 14.6474 7.85175C14.8418 7.63253 14.8178 7.26862 14.5974 7.02961C14.3769 6.79085 14.0356 6.76317 13.8309 6.97674C13.6264 7.18997 13.6439 7.56888 13.8744 7.81339C13.9175 7.85903 13.9646 7.89653 14.014 7.92604L13.729 8.931C13.5533 8.89785 13.3663 8.95145 13.2289 9.09643C13.085 9.24812 13.0328 9.46341 13.0718 9.66314L12.0616 10.005C12.0322 9.94309 11.9929 9.88475 11.9425 9.83317C11.6991 9.58392 11.2993 9.58181 11.0504 9.83264C10.8015 10.0834 10.8009 10.4914 11.0482 10.7397C11.2766 10.969 11.6333 10.9824 11.8797 10.7867L12.4551 11.3884C12.3482 11.5318 12.3066 11.7082 12.3312 11.8727L11.2979 12.2374C11.2696 12.1801 11.2318 12.1261 11.1835 12.0781C10.9422 11.8384 10.5387 11.8414 10.2884 12.0869C10.038 12.3324 10.0376 12.7223 10.2811 12.9552C10.5248 13.1882 10.9184 13.1817 11.1666 12.943C11.323 12.7925 11.3846 12.5835 11.3486 12.3894ZM13.8556 17.0203C13.7418 16.9412 13.5026 16.9608 13.292 17.0568L12.8872 16.8005C13.0499 16.6509 13.0753 16.4554 12.9232 16.3354C12.7494 16.1979 12.4052 16.2269 12.1701 16.4014C11.9347 16.5759 11.9014 16.8126 12.0789 16.9287C12.0945 16.9389 12.1116 16.9476 12.1292 16.9556L11.7041 17.4952C11.5783 17.5046 11.446 17.5364 11.3389 17.5885C11.1201 17.6948 11.0907 17.8205 11.25 17.8708C11.4097 17.9209 11.6974 17.9041 11.9153 17.8286C12.1327 17.753 12.1971 17.6217 12.0381 17.5408C12.0011 17.5219 11.9549 17.5089 11.9034 17.501L12.3003 16.9972C12.4419 17.0085 12.6039 16.9747 12.7443 16.8997L13.1353 17.1473C12.9464 17.2831 12.9028 17.4327 13.0294 17.4956C13.1668 17.5636 13.45 17.5271 13.6772 17.4084C13.9039 17.2895 13.9897 17.1131 13.8556 17.0203ZM4.25848 5.9099C4.4767 5.67909 4.51846 5.3509 4.35782 5.18595C4.34417 5.17191 4.32922 5.15999 4.31375 5.14902L4.74448 4.28756C4.86791 4.26783 5.00144 4.20671 5.1152 4.10776C5.34539 3.90765 5.39999 3.64311 5.24806 3.52012C5.09609 3.39707 4.80004 3.44684 4.57752 3.63037C4.35537 3.8142 4.28573 4.0749 4.43014 4.21437C4.4664 4.24948 4.51329 4.27276 4.56674 4.28483L4.16322 5.09197C4.01273 5.07353 3.83532 5.14495 3.69704 5.29314C3.49099 5.51451 3.44142 5.82891 3.59009 6.00382C3.73857 6.17855 4.04027 6.14085 4.25848 5.9099ZM16.7442 8.66517C16.904 8.89268 17.1272 8.9047 17.2419 8.71029C17.3565 8.51554 17.3377 8.18975 17.1991 7.96459C17.1725 7.92144 17.1427 7.88523 17.111 7.85606L17.2085 7.15956C17.3071 7.21037 17.3981 7.19093 17.4482 7.09585C17.5303 6.94 17.4915 6.64429 17.3577 6.42028C17.2236 6.19679 17.0279 6.12735 16.9245 6.27865C16.8209 6.42947 16.8637 6.74885 17.019 6.97712C17.0336 6.99872 17.0487 7.01812 17.064 7.03646L16.9606 7.77469C16.8665 7.75538 16.7718 7.79193 16.701 7.89227C16.5653 8.08414 16.5845 8.4381 16.7442 8.66517ZM13.4864 3.85975C13.5298 3.88312 13.5719 3.91062 13.611 3.94299C13.6657 3.98816 13.71 4.03874 13.7442 4.09166L14.6641 3.96024C14.6279 3.88097 14.6148 3.80371 14.6263 3.73776L13.978 3.24021C13.894 3.2552 13.7927 3.24687 13.69 3.2177L13.4864 3.85975ZM12.8668 3.86416C12.9851 3.76769 13.1634 3.74892 13.3376 3.79897L13.5402 3.16008C13.4992 3.13997 13.4591 3.11688 13.4214 3.09025C13.1891 2.92616 13.1319 2.72159 13.2785 2.6327C13.4252 2.54385 13.7176 2.58384 13.9456 2.72547C14.1565 2.85699 14.2394 3.04499 14.1369 3.16018L14.7105 3.60034C14.8541 3.49641 15.124 3.55451 15.3318 3.73575C15.5461 3.92326 15.6187 4.18228 15.4881 4.3162C15.3579 4.45017 15.0649 4.39801 14.8414 4.19541C14.8106 4.16743 14.7832 4.13827 14.7586 4.10857L13.8117 4.24388C13.844 4.37181 13.8163 4.49878 13.7195 4.58916C13.5424 4.75474 13.1959 4.72351 12.9574 4.5153C12.7185 4.30705 12.6836 4.01374 12.8668 3.86416ZM7.43921 11.3321C7.19188 11.0825 6.80071 11.0789 6.56966 11.3184C6.33851 11.558 6.35039 11.9467 6.59241 12.1917C6.83448 12.4366 7.21913 12.4487 7.45569 12.2137C7.69215 11.9788 7.68669 11.5816 7.43921 11.3321ZM4.68183 6.36673C4.45931 6.60133 4.42842 6.95475 4.61765 7.16482C4.8067 7.37466 5.15299 7.35622 5.38533 7.11425C5.61782 6.87247 5.64019 6.5052 5.44127 6.30289C5.24227 6.10028 4.90455 6.13252 4.68183 6.36673ZM6.69697 5.57089C6.45509 5.79581 6.42889 6.14938 6.64696 6.36438C6.86479 6.57929 7.24854 6.56646 7.49515 6.33114C7.74201 6.09588 7.75403 5.73565 7.53136 5.53123C7.30855 5.32666 6.93908 5.34616 6.69697 5.57089ZM8.05798 6.87371C7.80988 7.11252 7.79958 7.49885 8.04107 7.73857C8.28242 7.97825 8.6859 7.97528 8.93615 7.72976C9.1866 7.4842 9.18703 7.09437 8.94348 6.8615C8.69979 6.62858 8.30618 6.63495 8.05798 6.87371ZM6.30139 3.48127C6.47521 3.61883 6.81939 3.58976 7.05446 3.41532C7.28987 3.24079 7.32311 3.00408 7.14566 2.88794C6.96787 2.77188 6.64902 2.8011 6.41711 2.95408C6.18568 3.1073 6.1271 3.34376 6.30139 3.48127ZM10.2731 6.16365C10.0331 6.38713 10.0336 6.76441 10.2825 7.00408C10.5311 7.24371 10.932 7.24797 11.1698 7.01577C11.4079 6.78343 11.3947 6.40926 11.1481 6.1784C10.9014 5.94754 10.5133 5.94017 10.2731 6.16365ZM7.18646 2.27587C7.34481 2.35682 7.66753 2.3343 7.88575 2.22821C8.10449 2.12184 8.13399 1.99616 7.97464 1.94587C7.81486 1.89577 7.52715 1.91263 7.30922 1.98806C7.09192 2.06369 7.0275 2.19502 7.18646 2.27587ZM9.54396 3.82584C9.76969 4.00262 10.144 4.00569 10.3632 3.83298C10.5829 3.66017 10.5643 3.39248 10.339 3.2359C10.1132 3.07943 9.76624 3.07617 9.54616 3.22857C9.32651 3.38107 9.31779 3.64905 9.54396 3.82584ZM10.9638 5.0003C11.2061 5.21344 11.5878 5.22623 11.8035 5.03124C12.0195 4.83626 11.9903 4.51861 11.7508 4.32051C11.511 4.12251 11.1499 4.10651 10.931 4.28646C10.7124 4.46635 10.7211 4.78721 10.9638 5.0003ZM12.438 6.35806C12.6822 6.59448 13.0553 6.61095 13.263 6.40083C13.4709 6.19052 13.4403 5.84064 13.2024 5.61433C12.9642 5.38821 12.6044 5.36321 12.3902 5.56332C12.1762 5.76333 12.1937 6.12174 12.438 6.35806ZM9.02184 1.82952C9.20121 1.89457 9.52039 1.89155 9.7091 1.8233C9.89858 1.75495 9.88521 1.67396 9.70575 1.64398C9.52566 1.61423 9.2482 1.61615 9.05877 1.6491C8.86996 1.68225 8.84175 1.76434 9.02184 1.82952ZM10.1727 2.49883C10.3854 2.6202 10.728 2.63016 10.916 2.52043C11.1047 2.4107 11.068 2.24421 10.8558 2.1512C10.6431 2.05842 10.3359 2.04999 10.1466 2.13108C9.95782 2.21236 9.95936 2.37731 10.1727 2.49883ZM11.5265 3.37379C11.7598 3.54445 12.1125 3.5671 12.2973 3.42509C12.4826 3.28313 12.4325 3.04652 12.2018 2.89775C11.9707 2.74913 11.6453 2.72643 11.4573 2.84632C11.2697 2.9663 11.2926 3.20304 11.5265 3.37379ZM11.9225 2.26682C12.1453 2.37755 12.4617 2.40653 12.6091 2.32808C12.7572 2.24981 12.6819 2.11537 12.4603 2.03428C12.2382 1.95334 11.9544 1.93174 11.8052 1.98001C11.6565 2.02858 11.6992 2.15575 11.9225 2.26682ZM8.26082 14.8164C8.01847 14.6033 7.63683 14.5905 7.42111 14.7854C7.2051 14.9805 7.23426 15.298 7.47374 15.4962C7.71356 15.6942 8.07465 15.7102 8.29358 15.5302C8.51223 15.3503 8.50351 15.0295 8.26082 14.8164ZM8.05472 12.801C7.81663 13.0333 7.8299 13.4074 8.07642 13.6383C8.32318 13.869 8.71123 13.8766 8.95148 13.653C9.19149 13.4296 9.19096 13.0522 8.94209 12.8126C8.69342 12.573 8.29262 12.5687 8.05472 12.801ZM9.53964 14.194C9.29911 14.4131 9.3051 14.7558 9.54118 14.9585C9.77754 15.1611 10.1538 15.1581 10.3937 14.9522C10.6334 14.7462 10.646 14.4042 10.4103 14.1885C10.1748 13.9727 9.77989 13.9749 9.53964 14.194ZM11.7294 13.4856C11.4826 13.7208 11.4706 14.081 11.6932 14.2855C11.9161 14.49 12.2855 14.4705 12.5276 14.2458C12.7695 14.0208 12.7957 13.6674 12.5776 13.4523C12.3598 13.2374 11.976 13.2503 11.7294 13.4856ZM13.023 14.7112C12.7833 14.9311 12.7525 15.2483 12.9431 15.4145C13.134 15.5808 13.4693 15.5456 13.7024 15.3396C13.9353 15.1333 13.9823 14.8232 13.7981 14.6432C13.6143 14.4632 13.2626 14.4913 13.023 14.7112ZM14.1094 15.7089C13.8793 15.909 13.8246 16.1736 13.9765 16.2966C14.1285 16.4196 14.4245 16.3698 14.6471 16.1863C14.8693 16.0025 14.9388 15.7417 14.7944 15.6023C14.6504 15.4629 14.3393 15.5089 14.1094 15.7089ZM14.5427 13.45C14.7652 13.2154 14.7961 12.8619 14.6069 12.6519C14.4179 12.4421 14.0716 12.4605 13.8392 12.7024C13.6067 12.9442 13.5845 13.3115 13.7833 13.5138C13.9823 13.7164 14.32 13.6842 14.5427 13.45ZM15.2779 11.3772C15.4803 11.1381 15.4913 10.7689 15.3012 10.5404C15.1111 10.3123 14.7811 10.3131 14.5662 10.5545C14.3512 10.7956 14.3426 11.1838 14.5452 11.4097C14.7479 11.6358 15.0754 11.616 15.2779 11.3772ZM15.8676 9.28969C16.0425 9.06669 16.031 8.70612 15.843 8.47052C15.6548 8.23526 15.3491 8.21279 15.1597 8.43369C14.9703 8.65425 14.98 9.03642 15.1827 9.27374C15.3854 9.51145 15.6928 9.51236 15.8676 9.28969ZM17.4021 11.1142C17.2618 11.336 17.2424 11.6805 17.3592 11.8647C17.4759 12.0494 17.6674 12.0058 17.7842 11.786C17.9009 11.5658 17.9185 11.2518 17.8254 11.0652C17.7322 10.8789 17.5425 10.892 17.4021 11.1142ZM14.9806 5.20281C14.7633 4.98258 14.4512 4.93727 14.2772 5.10821C14.1033 5.27896 14.1406 5.61102 14.3681 5.84179C14.5955 6.0727 14.9179 6.10594 15.0814 5.92465C15.2451 5.74322 15.1976 5.42332 14.9806 5.20281ZM15.6602 7.25813C15.8606 7.49536 16.1413 7.52237 16.2844 7.33198C16.4274 7.14136 16.3924 6.80953 16.2076 6.57805C16.0226 6.34695 15.7454 6.29987 15.5869 6.4847C15.4285 6.6691 15.4599 7.02114 15.6602 7.25813ZM17.6595 9.23226C17.5545 9.42701 17.5584 9.76698 17.6678 9.96986C17.7773 10.1733 17.9305 10.1622 18.0086 9.96704C18.0866 9.77138 18.0834 9.46638 18.0009 9.26316C17.9183 9.06051 17.7645 9.03689 17.6595 9.23226ZM16.0746 5.52644C15.8773 5.30205 15.8217 5.0004 15.9474 4.86164C16.0729 4.7226 16.3222 4.7897 16.5049 5.00461C16.6874 5.21995 16.7454 5.50805 16.6346 5.65633C16.5238 5.80462 16.2721 5.75093 16.0746 5.52644Z" fill="black"/>
</svg>
