<svg width="24" height="24" viewBox="0 0 24 24" fill="none" xmlns="http://www.w3.org/2000/svg">
<path d="M22 12C22 17.5228 17.5228 22 12 22C6.47713 22 1.99995 17.5228 2 12C1.99995 6.47713 6.47713 2.00005 12 2.00005C17.5228 2.00005 22 6.47713 22 12Z" fill="black"/>
<path opacity="0.0500031" d="M11.9996 3.42847C7.28512 3.42847 3.42837 7.26575 3.42847 11.9995C3.42837 16.7332 7.26527 20.5711 11.9993 20.5713C13.8827 20.5713 15.6132 19.9713 17.0378 18.9343L11.9986 11.9989L11.9996 3.42847Z" fill="white"/>
<path opacity="0.0700073" d="M4.75381 9.6494C3.45324 13.6501 5.64272 17.947 9.64428 19.2465C13.6458 20.546 17.9435 18.3558 19.2442 14.3551C19.7615 12.7633 19.731 11.1399 19.244 9.64631L11.9976 12.001L4.75381 9.6494Z" fill="white"/>
<path opacity="0.0899963" d="M18.3378 9.94277C17.2007 6.44312 13.4417 4.52812 9.94149 5.66555C6.44102 6.80254 4.52488 10.5609 5.66207 14.0606C6.11464 15.453 6.95564 16.5747 8.08306 17.3921L12.0005 12.0009L18.3378 9.94277Z" fill="white"/>
<path opacity="0.110001" d="M15.3576 16.625C17.9001 14.7785 18.4772 11.1976 16.6223 8.64545C14.7678 6.09303 11.1949 5.52693 8.64215 7.3815C7.62644 8.11907 6.92516 9.1293 6.56592 10.2387L12 12.0043L15.3576 16.625Z" fill="white"/>
<path opacity="0.130005" d="M16.5305 10.5311C15.7182 8.03144 13.0329 6.66368 10.5322 7.4762C8.03149 8.28872 6.66259 10.9738 7.47487 13.4737C7.79792 14.4684 8.43335 15.2949 9.20444 15.8535L12.0032 12.0022L16.5305 10.5311Z" fill="white"/>
<path d="M11.9994 9.16931L12.6408 11.1426H14.7162L13.0372 12.3502L13.6784 14.3179L11.9994 13.0951L10.3202 14.3132L10.9615 12.3509L9.28247 11.1426H11.3579L11.9994 9.16931Z" fill="black"/>
<path opacity="0.0500031" d="M11.9996 3.42847C7.28512 3.42847 3.42837 7.26575 3.42847 11.9995C3.42837 16.7332 7.26527 20.5711 11.9993 20.5713C13.8827 20.5713 15.6132 19.9713 17.0378 18.9343L11.9986 11.9989L11.9996 3.42847Z" fill="white"/>
<path opacity="0.0700073" d="M4.75381 9.6494C3.45324 13.6501 5.64272 17.947 9.64428 19.2465C13.6458 20.546 17.9435 18.3558 19.2442 14.3551C19.7615 12.7633 19.731 11.1399 19.244 9.64631L11.9976 12.001L4.75381 9.6494Z" fill="white"/>
<path opacity="0.0899963" d="M18.3378 9.94277C17.2007 6.44312 13.4417 4.52812 9.94149 5.66555C6.44102 6.80254 4.52488 10.5609 5.66207 14.0606C6.11464 15.453 6.95564 16.5747 8.08306 17.3921L12.0005 12.0009L18.3378 9.94277Z" fill="white"/>
<path opacity="0.110001" d="M15.3576 16.625C17.9001 14.7785 18.4772 11.1976 16.6223 8.64545C14.7678 6.09303 11.1949 5.52693 8.64215 7.3815C7.62644 8.11907 6.92516 9.1293 6.56592 10.2387L12 12.0043L15.3576 16.625Z" fill="white"/>
<path opacity="0.130005" d="M16.5305 10.5311C15.7182 8.03144 13.0329 6.66368 10.5322 7.4762C8.03149 8.28872 6.66259 10.9738 7.47487 13.4737C7.79792 14.4684 8.43335 15.2949 9.20444 15.8535L12.0032 12.0022L16.5305 10.5311Z" fill="white"/>
<path d="M11.9994 9.16931L12.6408 11.1426H14.7162L13.0372 12.3502L13.6784 14.3179L11.9994 13.0951L10.3202 14.3132L10.9615 12.3509L9.28247 11.1426H11.3579L11.9994 9.16931Z" fill="black"/>
<path opacity="0.0500031" d="M11.9996 3.42847C7.28512 3.42847 3.42837 7.26575 3.42847 11.9995C3.42837 16.7332 7.26527 20.5711 11.9993 20.5713C13.8827 20.5713 15.6132 19.9713 17.0378 18.9343L11.9986 11.9989L11.9996 3.42847Z" fill="white"/>
<path opacity="0.0700073" d="M4.75381 9.6494C3.45324 13.6501 5.64272 17.947 9.64428 19.2465C13.6458 20.546 17.9435 18.3558 19.2442 14.3551C19.7615 12.7633 19.731 11.1399 19.244 9.64631L11.9976 12.001L4.75381 9.6494Z" fill="white"/>
<path opacity="0.0899963" d="M18.3378 9.94277C17.2007 6.44312 13.4417 4.52812 9.94149 5.66555C6.44102 6.80254 4.52488 10.5609 5.66207 14.0606C6.11464 15.453 6.95564 16.5747 8.08306 17.3921L12.0005 12.0009L18.3378 9.94277Z" fill="white"/>
<path opacity="0.110001" d="M15.3576 16.625C17.9001 14.7785 18.4772 11.1976 16.6223 8.64545C14.7678 6.09303 11.1949 5.52693 8.64215 7.3815C7.62644 8.11907 6.92516 9.1293 6.56592 10.2387L12 12.0043L15.3576 16.625Z" fill="white"/>
<path opacity="0.130005" d="M16.5305 10.5311C15.7182 8.03144 13.0329 6.66368 10.5322 7.4762C8.03149 8.28872 6.66259 10.9738 7.47487 13.4737C7.79792 14.4684 8.43335 15.2949 9.20444 15.8535L12.0032 12.0022L16.5305 10.5311Z" fill="white"/>
<path d="M11.9994 9.16931L12.6408 11.1426H14.7162L13.0372 12.3502L13.6784 14.3179L11.9994 13.0951L10.3202 14.3132L10.9615 12.3509L9.28247 11.1426H11.3579L11.9994 9.16931Z" fill="black"/>
</svg>
