<svg width="182" height="99" viewBox="0 0 182 99" fill="none" xmlns="http://www.w3.org/2000/svg">
<path fill-rule="evenodd" clip-rule="evenodd" d="M30.3201 24.4315C34.9512 37.6694 39.5295 50.7259 40.4943 53.446C43.4491 61.7758 44.7811 68.0185 45.2493 75.7337L45.6984 83.1199H48.1679H50.6381L51.0852 77.6796C51.3311 74.6879 51.8138 70.3106 52.1587 67.9532C52.6823 64.3679 64.5934 27.8328 72.2604 6.29746L74.3726 0.362683L84.9945 0.181341L95.6157 0V49.473V98.9459H89.0216H82.4274L82.4326 71.0854C82.4392 37.7425 83.2734 28.5061 87.371 16.3945L88.8633 11.9823L86.2223 10.9259C84.7703 10.3443 83.52 9.95592 83.4449 10.0614C83.3697 10.1676 79.8207 20.3431 75.5589 32.6742C66.356 59.3003 63.6504 67.1078 57.3259 85.29L52.557 99L47.9464 98.8081L43.335 98.6162L38.9196 86.0872C36.4903 79.1963 29.5162 59.3148 23.4212 41.9061C17.3256 24.4974 12.2784 10.1762 12.2052 10.0806C11.8893 9.66973 7.25361 11.9797 7.25361 12.5474C7.25361 12.893 7.68487 14.4466 8.21175 16.0008C12.2995 28.0583 13.1871 38.003 13.1877 71.7449L13.1884 98.9459H6.59419H0V49.4736V0.00132315L10.9503 0.182L21.9 0.362683L30.3201 24.4315ZM123.971 18.4077C123.971 36.1144 123.92 36.8471 122.577 38.555C121.81 39.5296 121.291 40.4086 121.423 40.5088C121.555 40.609 122.732 41.4854 124.04 42.4574L126.417 44.2246L129.645 42.7429C132.593 41.3898 134.049 41.2414 146.436 41.033C159.463 40.8141 160.193 40.8702 164.9 42.4508C167.595 43.3562 169.8 44.0486 169.8 43.9905C169.8 43.9319 170.485 43.1056 171.321 42.1541L172.841 40.4244L171.156 37.941L169.471 35.4577V17.745V0.032973H175.735H182V49.4895V98.9459H175.707H169.415L169.607 79.6579C169.796 60.8255 169.836 60.3204 171.295 58.2756L172.788 56.1812L171.222 54.3606L169.657 52.5399L165.264 53.9821C161.276 55.291 159.511 55.4242 146.151 55.4242C131.954 55.4242 131.329 55.3688 128.525 53.8713L125.619 52.3184L123.143 54.259L120.666 56.1997L122.154 58.2848C123.604 60.3178 123.646 60.8519 123.834 79.6579L124.027 98.9459H117.735H111.442V49.4895V0.032973H117.706H123.971V18.4077Z" fill="black"/>
</svg>
