<svg width="24" height="24" viewBox="0 0 24 24" fill="none" xmlns="http://www.w3.org/2000/svg">
<path fill-rule="evenodd" clip-rule="evenodd" d="M5.33188 9.24484C5.8408 10.6996 6.34391 12.1343 6.44993 12.4332C6.77464 13.3486 6.92101 14.0346 6.97246 14.8824L7.02181 15.6941H7.29319H7.56464L7.61377 15.0963C7.6408 14.7675 7.69384 14.2865 7.73174 14.0274C7.78928 13.6335 9.09819 9.61861 9.94072 7.25209L10.1728 6.59991L11.3401 6.57999L12.5072 6.56006V11.9967V17.4332H11.7826H11.058L11.0586 14.3717C11.0593 10.7076 11.1509 9.69259 11.6012 8.36165L11.7652 7.8768L11.475 7.76071C11.3154 7.6968 11.178 7.65412 11.1698 7.66571C11.1615 7.67738 10.7715 8.79557 10.3032 10.1506C9.29188 13.0766 8.99457 13.9346 8.29957 15.9326L7.77551 17.4392L7.26884 17.4181L6.7621 17.397L6.27688 16.0202C6.00993 15.263 5.24355 13.0782 4.57377 11.1651C3.90391 9.25209 3.34928 7.67832 3.34123 7.66781C3.30652 7.62267 2.7971 7.87651 2.7971 7.9389C2.7971 7.97687 2.84449 8.14759 2.90239 8.31839C3.35159 9.64339 3.44913 10.7362 3.4492 14.4441L3.44928 17.4332H2.72464H2V11.9967V6.5602L3.20333 6.58006L4.40659 6.59991L5.33188 9.24484ZM15.6232 8.58289C15.6232 10.5287 15.6176 10.6092 15.47 10.7969C15.3857 10.904 15.3287 11.0006 15.3432 11.0116C15.3577 11.0226 15.4871 11.1189 15.6308 11.2257L15.892 11.4199L16.2467 11.2571C16.5707 11.1084 16.7307 11.0921 18.0919 11.0692C19.5234 11.0451 19.6037 11.0513 20.1209 11.225C20.4171 11.3245 20.6594 11.4006 20.6594 11.3942C20.6594 11.3877 20.7346 11.2969 20.8265 11.1924L20.9935 11.0023L20.8084 10.7294L20.6232 10.4565V8.51006V6.56368H21.3116H22V11.9985V17.4332H21.3085H20.617L20.6382 15.3137C20.6589 13.2442 20.6633 13.1887 20.8236 12.964L20.9878 12.7338L20.8157 12.5338L20.6436 12.3337L20.1609 12.4922C19.7227 12.636 19.5288 12.6506 18.0606 12.6506C16.5005 12.6506 16.4317 12.6446 16.1237 12.48L15.8043 12.3093L15.5322 12.5226L15.2601 12.7359L15.4235 12.965C15.5829 13.1884 15.5875 13.2471 15.6082 15.3137L15.6293 17.4332H14.9379H14.2464V11.9985V6.56368H14.9348H15.6232V8.58289Z" fill="black"/>
</svg>
