<svg viewBox="0 0 20 20" fill="none" xmlns="http://www.w3.org/2000/svg">
<path d="M20 10C20 15.5228 15.5228 20 10 20C4.47713 20 -4.76186e-05 15.5228 3.79851e-10 10C-4.76186e-05 4.47713 4.47713 4.82798e-05 10 4.82798e-05C15.5228 4.82798e-05 20 4.47713 20 10Z" fill="black"/>
<path opacity="0.0500031" d="M9.99964 1.42847C5.28512 1.42847 1.42837 5.26575 1.42847 9.99945C1.42837 14.7332 5.26527 18.5711 9.9993 18.5713C11.8827 18.5713 13.6132 17.9713 15.0378 16.9343L9.99859 9.99888L9.99964 1.42847Z" fill="white"/>
<path opacity="0.0700073" d="M2.75381 7.6494C1.45324 11.6501 3.64272 15.947 7.64428 17.2465C11.6458 18.546 15.9435 16.3558 17.2442 12.3551C17.7615 10.7633 17.731 9.13992 17.244 7.64631L9.9976 10.001L2.75381 7.6494Z" fill="white"/>
<path opacity="0.0899963" d="M16.3378 7.94277C15.2007 4.44312 11.4417 2.52812 7.94149 3.66555C4.44102 4.80254 2.52488 8.56092 3.66207 12.0606C4.11464 13.453 4.95564 14.5747 6.08306 15.3921L10.0005 10.0009L16.3378 7.94277Z" fill="white"/>
<path opacity="0.110001" d="M13.3576 14.625C15.9001 12.7785 16.4772 9.19763 14.6223 6.64545C12.7678 4.09303 9.19486 3.52693 6.64215 5.3815C5.62644 6.11907 4.92516 7.1293 4.56592 8.23868L9.99995 10.0043L13.3576 14.625Z" fill="white"/>
<path opacity="0.130005" d="M14.5305 8.5311C13.7182 6.03144 11.0329 4.66368 8.53215 5.4762C6.03149 6.28872 4.66259 8.97377 5.47487 11.4737C5.79792 12.4684 6.43335 13.2949 7.20444 13.8535L10.0032 10.0022L14.5305 8.5311Z" fill="white"/>
<path d="M9.99937 7.16931L10.6408 9.14264H12.7162L11.0372 10.3502L11.6784 12.3179L9.99937 11.0951L8.32023 12.3132L8.96147 10.3509L7.28247 9.14264H9.35789L9.99937 7.16931Z" fill="black"/>
<path opacity="0.0500031" d="M9.99964 1.42847C5.28512 1.42847 1.42837 5.26575 1.42847 9.99945C1.42837 14.7332 5.26527 18.5711 9.9993 18.5713C11.8827 18.5713 13.6132 17.9713 15.0378 16.9343L9.99859 9.99888L9.99964 1.42847Z" fill="white"/>
<path opacity="0.0700073" d="M2.75381 7.6494C1.45324 11.6501 3.64272 15.947 7.64428 17.2465C11.6458 18.546 15.9435 16.3558 17.2442 12.3551C17.7615 10.7633 17.731 9.13992 17.244 7.64631L9.9976 10.001L2.75381 7.6494Z" fill="white"/>
<path opacity="0.0899963" d="M16.3378 7.94277C15.2007 4.44312 11.4417 2.52812 7.94149 3.66555C4.44102 4.80254 2.52488 8.56092 3.66207 12.0606C4.11464 13.453 4.95564 14.5747 6.08306 15.3921L10.0005 10.0009L16.3378 7.94277Z" fill="white"/>
<path opacity="0.110001" d="M13.3576 14.625C15.9001 12.7785 16.4772 9.19763 14.6223 6.64545C12.7678 4.09303 9.19486 3.52693 6.64215 5.3815C5.62644 6.11907 4.92516 7.1293 4.56592 8.23868L9.99995 10.0043L13.3576 14.625Z" fill="white"/>
<path opacity="0.130005" d="M14.5305 8.5311C13.7182 6.03144 11.0329 4.66368 8.53215 5.4762C6.03149 6.28872 4.66259 8.97377 5.47487 11.4737C5.79792 12.4684 6.43335 13.2949 7.20444 13.8535L10.0032 10.0022L14.5305 8.5311Z" fill="white"/>
<path d="M9.99937 7.16931L10.6408 9.14264H12.7162L11.0372 10.3502L11.6784 12.3179L9.99937 11.0951L8.32023 12.3132L8.96147 10.3509L7.28247 9.14264H9.35789L9.99937 7.16931Z" fill="black"/>
<path opacity="0.0500031" d="M9.99964 1.42847C5.28512 1.42847 1.42837 5.26575 1.42847 9.99945C1.42837 14.7332 5.26527 18.5711 9.9993 18.5713C11.8827 18.5713 13.6132 17.9713 15.0378 16.9343L9.99859 9.99888L9.99964 1.42847Z" fill="white"/>
<path opacity="0.0700073" d="M2.75381 7.6494C1.45324 11.6501 3.64272 15.947 7.64428 17.2465C11.6458 18.546 15.9435 16.3558 17.2442 12.3551C17.7615 10.7633 17.731 9.13992 17.244 7.64631L9.9976 10.001L2.75381 7.6494Z" fill="white"/>
<path opacity="0.0899963" d="M16.3378 7.94277C15.2007 4.44312 11.4417 2.52812 7.94149 3.66555C4.44102 4.80254 2.52488 8.56092 3.66207 12.0606C4.11464 13.453 4.95564 14.5747 6.08306 15.3921L10.0005 10.0009L16.3378 7.94277Z" fill="white"/>
<path opacity="0.110001" d="M13.3576 14.625C15.9001 12.7785 16.4772 9.19763 14.6223 6.64545C12.7678 4.09303 9.19486 3.52693 6.64215 5.3815C5.62644 6.11907 4.92516 7.1293 4.56592 8.23868L9.99995 10.0043L13.3576 14.625Z" fill="white"/>
<path opacity="0.130005" d="M14.5305 8.5311C13.7182 6.03144 11.0329 4.66368 8.53215 5.4762C6.03149 6.28872 4.66259 8.97377 5.47487 11.4737C5.79792 12.4684 6.43335 13.2949 7.20444 13.8535L10.0032 10.0022L14.5305 8.5311Z" fill="white"/>
<path d="M9.99937 7.16931L10.6408 9.14264H12.7162L11.0372 10.3502L11.6784 12.3179L9.99937 11.0951L8.32023 12.3132L8.96147 10.3509L7.28247 9.14264H9.35789L9.99937 7.16931Z" fill="black"/>
</svg>
