<?xml version="1.0" encoding="utf-8"?>
<!-- Generator: Adobe Illustrator 22.1.0, SVG Export Plug-In . SVG Version: 6.00 Build 0)  -->
<svg version="1.1" id="Layer_1" xmlns="http://www.w3.org/2000/svg" xmlns:xlink="http://www.w3.org/1999/xlink" x="0px" y="0px"
	 viewBox="0 0 1000 999.9" enable-background="new 0 0 1000 999.9" xml:space="preserve">
<g>
	<g opacity="0.11">
		<path fill="none" d="M995,500C994.6,226.7,773.2,5.4,500,5v495l291,400.5C919.4,807.6,995.4,658.5,995,500z"/>
		<path fill="#EAE7E3" d="M500,5C226.7,4.9,5.1,226.5,5,499.9s221.5,495,494.9,495c104.6,0,206.5-33.1,291.1-94.6L500,500L500,5z"/>
	</g>
	<g opacity="0.13">
		<path fill="none" d="M635.9,81.8c-231.1-75-479.2,51.4-554.3,282.4L499.9,500l418.5-136C874.6,230.2,769.7,125.4,635.9,81.8z"/>
		<path fill="#EAE7E3" d="M81.6,364.2C6.5,595.3,132.9,843.5,364,918.6c231.1,75.1,479.3-51.3,554.3-282.4
			c28.7-88.4,28.7-183.6,0-271.9L499.9,500L81.6,364.2z"/>
	</g>
	<g opacity="0.17">
		<path fill="none" d="M619,866c202.1-65.7,312.7-282.7,247-484.8c0,0,0,0,0-0.1L500,500L273.9,811.3
			C373.6,883.5,501.8,903.8,619,866z"/>
		<path fill="#EAE7E3" d="M866,381.2C797.1,180.1,578.3,73,377.2,141.9c-196.4,67.3-304,278.3-243.1,476.9
			c24.7,77.5,73.7,144.9,139.8,192.4L500,500L866,381.2z"/>
	</g>
	<g opacity="0.19">
		<path fill="none" d="M233.2,694c107.2,147.3,313.4,180,460.9,73L500,500L186.3,398.3C153.5,498.6,171,608.6,233.2,694z"/>
		<path fill="#EAE7E3" d="M694.1,767c147.4-107.1,180-313.4,72.9-460.7c-107.1-147.4-313.4-180-460.7-72.9
			C249.9,274.3,208,332,186.4,398.3L500,500L694.1,767z"/>
	</g>
	<g opacity="0.23">
		<path fill="none" d="M585.2,761.3C729.5,714.4,808.6,559.4,761.7,415l-261.5,85L338.7,722.5C409.8,774.2,501.5,788.7,585.2,761.3z
			"/>
		<path fill="#EAE7E3" d="M761.7,415.1c-46.8-144.4-201.9-223.6-346.4-176.7S191.8,440.3,238.6,584.8c17.9,55.3,53,103.5,100,137.7
			L500.2,500L761.7,415.1z"/>
	</g>
	<path fill="none" d="M665,500c0,91.1-73.8,165-164.9,165c-91.1,0-165-73.8-165-164.9c0-91.1,73.8-165,164.9-165c0,0,0.1,0,0.1,0
		C591.1,335.1,665,408.9,665,500z"/>
	<polygon points="500,338.5 537,452.4 656.9,452.4 559.9,521.2 597,634.3 500,563.5 403,633.6 440.1,521.3 343.2,452.4 463,452.4 	
		"/>
</g>
</svg>
